<?xml version="1.0" standalone="no"?>
<!DOCTYPE svg PUBLIC "-//W3C//DTD SVG 20010904//EN"
 "http://www.w3.org/TR/2001/REC-SVG-20010904/DTD/svg10.dtd">
<svg version="1.0" xmlns="http://www.w3.org/2000/svg"
 width="351.000000pt" height="357.000000pt" viewBox="0 0 351.000000 357.000000"
 preserveAspectRatio="xMidYMid meet">
<metadata>
Created by potrace 1.16, written by Peter Selinger 2001-2019
</metadata>
<g transform="translate(0.000000,357.000000) scale(0.100000,-0.100000)"
fill="#000000" stroke="none">
<path d="M0 1785 l0 -1785 1755 0 1755 0 0 1785 0 1785 -1755 0 -1755 0 0
-1785z m1248 1326 c81 -42 122 -111 122 -206 0 -83 -15 -119 -72 -171 -148
-136 -377 -33 -378 169 0 97 44 170 125 208 55 25 154 25 203 0z m1750 -89
c10 -7 12 -212 10 -993 l-3 -984 -175 0 -175 0 -3 83 c-2 45 -4 82 -5 82 -1 0
-29 -25 -60 -55 -121 -114 -299 -169 -474 -147 -195 25 -343 115 -448 272 -96
144 -128 265 -128 475 0 176 18 260 84 395 52 104 169 227 266 278 136 72 318
92 463 51 97 -26 160 -61 231 -126 31 -29 59 -53 63 -53 3 0 6 162 6 359 0
278 3 360 13 364 20 9 321 7 335 -1z m-1620 -553 c86 -17 161 -34 165 -39 5
-4 -6 -61 -23 -126 -17 -65 -40 -150 -50 -189 -10 -38 -42 -160 -70 -270 -29
-110 -76 -290 -105 -400 -29 -110 -69 -265 -90 -345 -84 -331 -113 -397 -210
-495 -99 -99 -217 -145 -373 -145 -130 0 -292 49 -292 88 0 9 11 49 24 87 12
39 29 91 36 118 8 26 19 47 25 47 6 0 36 -9 68 -20 97 -34 173 -21 236 40 68
66 73 80 201 575 38 149 88 340 110 425 54 206 124 475 151 580 22 87 26 100
35 100 3 0 76 -14 162 -31z"/>
<path d="M2148 2181 c-162 -64 -258 -224 -258 -431 0 -194 88 -348 238 -418
49 -23 70 -27 152 -27 84 0 102 3 157 29 155 71 248 263 229 473 -16 177 -98
303 -239 368 -67 32 -205 34 -279 6z"/>
</g>
</svg>
